# xmcd
#
# Track frame offsets:
#	150
#	15675
#	46035
#
# Disc length: 978 seconds
#
# Revision: 1
# Processed by: cddbd v1.5.2PL0 Copyright (c) Steve Scherf et al.
# Submitted via: EasyCDDAExtractor 10.2.0.1
#
DISCID=1703d003
DTITLE=B-Charme - This is my World CDM
DYEAR=2000
DGENRE=Dance 
TTITLE0=This is my World (Original Radio Edit)
TTITLE1=This is my World (Original Mix)
TTITLE2=This is my World (Nobodys Remix)
EXTD=
EXTT0=
EXTT1=
EXTT2=
PLAYORDER=
